<svg width="22" height="19" viewBox="0 0 22 19" fill="none" xmlns="http://www.w3.org/2000/svg">
<path d="M12.9945 8.4H10.1945V4.9H11.862C12.3543 5.33028 12.9904 5.6 13.6945 5.6C15.2382 5.6 16.4945 4.34372 16.4945 2.8C16.4945 1.25628 15.2382 0 13.6945 0C12.9908 0 12.3547 0.269719 11.862 0.7H7.12667C6.63432 0.269719 5.99825 0 5.29453 0C3.75081 0 2.49453 1.25628 2.49453 2.8C2.49453 4.34372 3.75081 5.6 5.29453 5.6C5.99825 5.6 6.63432 5.33028 7.12711 4.9H8.79453V8.4H1.79453V7.7C1.79453 7.31314 1.48139 7 1.09453 7C0.707672 7 0.394531 7.31314 0.394531 7.7V14.7C0.394531 15.0869 0.707672 15.4 1.09453 15.4C1.48139 15.4 1.79453 15.0869 1.79453 14.7V14H12.9945C14.5383 14 15.7945 15.2563 15.7945 16.8V17.5C15.7945 18.2733 16.4213 18.9 17.1945 18.9H19.9945C20.7678 18.9 21.3945 18.2733 21.3945 17.5V16.8C21.3945 12.1684 17.6262 8.4 12.9945 8.4ZM13.6945 1.4C14.4678 1.4 15.0945 2.02672 15.0945 2.8C15.0945 3.57328 14.4678 4.2 13.6945 4.2C12.9212 4.2 12.2945 3.57328 12.2945 2.8C12.2945 2.02672 12.9212 1.4 13.6945 1.4ZM5.29453 4.2C4.52125 4.2 3.89453 3.57328 3.89453 2.8C3.89453 2.02672 4.52125 1.4 5.29453 1.4C6.06781 1.4 6.69453 2.02672 6.69453 2.8C6.69453 3.57328 6.06781 4.2 5.29453 4.2ZM8.09453 3.5V2.1H10.8945V3.5H8.09453ZM19.9945 17.5H17.1945V16.8C17.1945 14.4839 15.3101 12.6 12.9945 12.6H1.79453V9.8H12.9945C16.8543 9.8 19.9945 12.9402 19.9945 16.8V17.5Z" fill="black"/>
</svg>
