<svg width="28" height="19" viewBox="0 0 28 19" fill="none" xmlns="http://www.w3.org/2000/svg">
<path d="M1.68 0.039978C0.758545 0.039978 0 0.798523 0 1.71998V18.52H3.36V15.72H24.64V18.52H28V10.68V7.87998C28 6.34252 26.7375 5.07998 25.2 5.07998H10.64C10.4915 5.07999 10.3491 5.139 10.244 5.24401C10.139 5.34903 10.08 5.49146 10.08 5.63998V10.68H6.72H3.36V1.71998C3.36 0.798523 2.60145 0.039978 1.68 0.039978ZM6.72 10.68C8.25976 10.68 9.52 9.41974 9.52 7.87998C9.52 6.34021 8.25976 5.07998 6.72 5.07998C5.18024 5.07998 3.92 6.34021 3.92 7.87998C3.92 9.41974 5.18024 10.68 6.72 10.68ZM1.68 1.15998C1.99055 1.15998 2.24 1.40943 2.24 1.71998V11.8H2.8H26.88V17.4H25.76V14.6H2.24V17.4H1.12V1.71998C1.12 1.40943 1.36945 1.15998 1.68 1.15998ZM6.72 6.19998C7.65447 6.19998 8.4 6.94551 8.4 7.87998C8.4 8.81445 7.65447 9.55998 6.72 9.55998C5.78553 9.55998 5.04 8.81445 5.04 7.87998C5.04 6.94551 5.78553 6.19998 6.72 6.19998ZM11.2 6.19998H25.2C26.1265 6.19998 26.88 6.95343 26.88 7.87998V10.68H11.2V6.19998Z" fill="black"/>
</svg>
