<svg width="28" height="28" viewBox="0 0 28 28" fill="none" xmlns="http://www.w3.org/2000/svg">
<path d="M26.833 9.33335H22.7497V1.16665H26.833C27.1539 1.16665 27.4164 0.904148 27.4164 0.583297C27.4163 0.2625 27.1538 0 26.833 0H22.1664C22.1489 0 22.1314 0.00585156 22.1139 0.0116484C22.0789 0.0175 22.0439 0.0232969 22.0089 0.035C21.9505 0.0525 21.8922 0.0816484 21.8397 0.116648H21.8339C21.8047 0.134148 21.7755 0.1575 21.7464 0.180797L17.1439 3.63415C17.1205 3.6458 17.103 3.6633 17.0797 3.6808L12.4597 7.1458C12.4481 7.15745 12.4306 7.1633 12.4189 7.1808L7.77551 10.6633C7.76966 10.6691 7.75801 10.6749 7.75216 10.6808L3.08551 14.175L0.816359 15.8725C0.559711 16.065 0.507211 16.4325 0.699711 16.6891C0.892211 16.9458 1.25971 16.9983 1.51636 16.8058L2.91636 15.7558V23.3333H1.16636C0.845508 23.3333 0.583008 23.5958 0.583008 23.9166V27.4166C0.583008 27.7375 0.845508 28 1.16636 28H26.833C27.1539 28 27.4164 27.7375 27.4164 27.4166V9.91665C27.4163 9.59585 27.1538 9.33335 26.833 9.33335ZM18.083 4.38665L21.583 1.76165V9.3333H20.9997C20.6788 9.3333 20.4163 9.5958 20.4163 9.91665V12.8333H18.083V4.38665H18.083ZM13.4163 7.88665L16.9163 5.26165V12.8333H16.333C16.0121 12.8333 15.7496 13.0958 15.7496 13.4166V15.75H13.4163L13.4163 7.88665ZM8.74966 11.3809L12.2497 8.75585V15.75H11.083C10.7622 15.75 10.4997 16.0125 10.4997 16.3334V19.8334H8.74966V11.3809ZM4.08301 14.8809L7.58301 12.2559V19.8334H6.41636C6.09551 19.8334 5.83301 20.0959 5.83301 20.4167V23.3334H4.08301V14.8809ZM26.2497 26.8334H1.74966V24.5H6.4163C6.73716 24.5 6.99966 24.2375 6.99966 23.9166V21H11.083C11.4039 21 11.6664 20.7375 11.6664 20.4166V16.9166H16.333C16.6539 16.9166 16.9164 16.6541 16.9164 16.3333V14H20.9997C21.3205 14 21.583 13.7375 21.583 13.4166V10.5H26.2497V26.8334Z" fill="black"/>
</svg>
