<svg width="28" height="28" viewBox="0 0 28 28" fill="none" xmlns="http://www.w3.org/2000/svg">
<path d="M23.275 18.1999C23.7125 17.7187 23.975 17.1062 23.975 16.4499C23.975 15.0499 22.8375 13.8687 21.3938 13.8687H7.56875C4.1125 13.8687 1.3125 16.6687 1.3125 20.1249C1.3125 23.5812 4.1125 26.3812 7.56875 26.3812H22.5312C24.8062 26.3812 26.6438 24.5437 26.6438 22.2687C26.6875 20.2124 25.2 18.5499 23.275 18.1999ZM22.575 25.5062H7.56875C4.59375 25.5062 2.1875 23.0999 2.1875 20.1249C2.1875 17.1499 4.59375 14.7437 7.56875 14.7437H21.3938C22.3125 14.7437 23.1 15.4874 23.1 16.4499C23.1 17.3687 22.3563 18.1562 21.3938 18.1562H7.175C6.08125 18.2437 5.1625 19.2062 5.1625 20.3437C5.1625 21.5687 6.125 22.5312 7.35 22.5312H20.1687V21.6562H7.39375C6.65 21.6562 6.08125 21.0874 6.08125 20.3437C6.08125 19.5999 6.65 19.0312 7.39375 19.0312H22.575C24.3687 19.0312 25.8125 20.4749 25.8125 22.2687C25.8125 24.0624 24.3687 25.5062 22.575 25.5062Z" fill="black"/>
</svg>
