<svg width="28" height="28" viewBox="0 0 28 28" fill="none" xmlns="http://www.w3.org/2000/svg">
<g clip-path="url(#clip0_40_482)">
<path d="M21.2484 3.10579C21.6927 3.10579 22.0527 3.46582 22.0527 3.91016C22.0527 4.35449 21.6927 4.71452 21.2484 4.71452C20.804 4.71452 20.444 4.35449 20.444 3.91016C20.444 3.46582 20.804 3.10579 21.2484 3.10579ZM17.6208 20.5352C17.8258 20.0703 17.9489 19.4368 17.9443 18.7396C17.9375 17.3132 17.3975 16.1579 16.7412 16.1602C16.085 16.1624 15.5563 17.3223 15.5654 18.7487C15.57 19.446 15.6999 20.0794 15.9095 20.5443C16.4837 21.5947 17.0534 21.4831 17.6208 20.5352ZM9.57259 23.4701C9.58398 23.4951 9.59538 23.5202 9.60221 23.5475H11.2611C11.0605 23.0371 10.8965 22.4652 10.7734 21.8499C10.6208 21.082 10.5365 20.2389 10.5319 19.3571V19.3366C10.5251 17.5433 10.8577 15.9118 11.4001 14.7223C11.5072 14.4899 11.6211 14.2734 11.7441 14.0729C11.653 13.9954 11.5596 13.9316 11.4639 13.8838C11.334 13.8177 11.2018 13.779 11.0719 13.7744L11.0378 13.7767V13.7744H11.0355C10.4749 13.7767 9.93717 14.3441 9.52018 15.2555C9.0485 16.2923 8.75911 17.7347 8.76595 19.3343V19.3503C8.77051 20.1523 8.84798 20.9157 8.9847 21.6084C9.1237 22.3125 9.3265 22.946 9.57259 23.4701ZM8.41504 23.5475C8.2168 23.0417 8.05273 22.472 7.92969 21.8568C7.77702 21.0866 7.69043 20.2435 7.68587 19.3571V19.3366C7.67904 17.5433 8.01172 15.9118 8.55404 14.7223C9.15104 13.4098 10.0215 12.5941 11.0218 12.5895V12.5872H11.0241C11.0446 12.5872 11.0651 12.5872 11.0833 12.5895C11.3727 12.5964 11.6507 12.6715 11.9128 12.806C12.1019 12.9017 12.2842 13.0293 12.4596 13.1865C12.8835 12.806 13.3574 12.5918 13.8678 12.5895V12.5872H13.8701C13.8906 12.5872 13.9111 12.5872 13.9294 12.5895C14.221 12.5986 14.5036 12.6738 14.7702 12.8128C14.957 12.9085 15.1348 13.0339 15.3057 13.1865C15.7295 12.806 16.2035 12.5918 16.7139 12.5895V12.5872H16.7161C16.7367 12.5872 16.7572 12.5872 16.7777 12.5895C17.7598 12.6169 18.6188 13.4212 19.2181 14.7109C19.7718 15.9004 20.1204 17.5342 20.1296 19.3298C20.1341 20.1911 20.0612 21.0114 19.9268 21.7565C19.8083 22.4105 19.6419 23.0143 19.4368 23.5498H21.2507C21.36 23.5498 21.4626 23.5042 21.5355 23.4313C21.6084 23.3584 21.654 23.2581 21.654 23.1465V11.1745C21.654 11.0651 21.6084 10.9648 21.5355 10.8919C21.4626 10.819 21.3623 10.7734 21.2529 10.7734H6.82454C6.71517 10.7734 6.61491 10.819 6.54199 10.8919C6.46908 10.9648 6.4235 11.0651 6.4235 11.1745V23.1442C6.4235 23.2536 6.46908 23.3538 6.54199 23.4268C6.61491 23.4997 6.71517 23.5452 6.82454 23.5452H8.41504V23.5475ZM12.4141 23.4609C12.4277 23.4883 12.4391 23.5179 12.4482 23.5475H14.1094C13.8997 23.0189 13.7311 22.4219 13.6081 21.7816C13.4645 21.0365 13.3848 20.2184 13.3802 19.3571V19.3366C13.3734 17.5433 13.7061 15.9118 14.2484 14.7223C14.3532 14.4899 14.4694 14.2734 14.5924 14.0729C14.5013 13.9954 14.4102 13.9339 14.3167 13.8861C14.1846 13.8177 14.0524 13.779 13.9202 13.7744L13.8861 13.7767V13.7744H13.8838C13.3232 13.7767 12.7855 14.3441 12.3685 15.2555C11.8968 16.2923 11.6074 17.7347 11.6143 19.3343V19.3503C11.6188 20.1501 11.6963 20.9111 11.833 21.6016C11.9674 22.3079 12.1702 22.9391 12.4141 23.4609ZM15.2214 23.3721C15.2464 23.429 15.2624 23.4883 15.2715 23.5475H18.2816C18.2884 23.4837 18.3044 23.4199 18.3317 23.3584C18.5596 22.8366 18.7441 22.2145 18.8695 21.5218C18.9925 20.8428 19.0586 20.1045 19.054 19.3366C19.0449 17.7301 18.7419 16.2832 18.2588 15.2464C17.8418 14.3532 17.3132 13.7949 16.764 13.7744L16.7298 13.7767V13.7744H16.7275C16.167 13.7767 15.6292 14.3441 15.2122 15.2555C14.7406 16.2923 14.4512 17.7347 14.458 19.3343V19.3503C14.4626 20.1227 14.5355 20.8633 14.6654 21.5423C14.7975 22.235 14.9889 22.8548 15.2214 23.3721ZM6.82454 9.65918H21.2529C21.6699 9.65918 22.0482 9.83008 22.3216 10.1035C22.5951 10.377 22.7659 10.7575 22.7659 11.1745V23.1442C22.7659 23.5589 22.5951 23.9372 22.3216 24.2106L22.3193 24.2152C22.0459 24.4886 21.6676 24.6595 21.2529 24.6595H6.82454C6.40755 24.6595 6.0293 24.4886 5.75358 24.2152C5.48014 23.9417 5.30924 23.5635 5.30924 23.1465V11.1745C5.30924 10.7575 5.48014 10.3792 5.75358 10.1035C6.02702 9.83008 6.40755 9.65918 6.82454 9.65918ZM6.23893 3.10579C6.68327 3.10579 7.04329 3.46582 7.04329 3.91016C7.04329 4.35449 6.68327 4.71452 6.23893 4.71452C5.7946 4.71452 5.43457 4.35449 5.43457 3.91016C5.43457 3.46582 5.7946 3.10579 6.23893 3.10579ZM9.7207 3.02376H18.3545V4.79655H9.7207V3.02376ZM3.55241 6.76074H24.4476V1.44466C24.4476 1.33757 24.4043 1.24186 24.3337 1.17122C24.263 1.10059 24.1673 1.05729 24.0602 1.05729H3.93978C3.83268 1.05729 3.73698 1.10059 3.66634 1.17122C3.5957 1.24186 3.55241 1.33757 3.55241 1.44466V6.76074ZM25.5026 26.5553C25.5026 26.9518 25.3408 27.3141 25.0788 27.5762C24.8167 27.8382 24.4544 28 24.0579 28H3.93978C3.54329 28 3.18099 27.8382 2.91895 27.5762C2.6569 27.3118 2.49512 26.9518 2.49512 26.5531V1.44466C2.49512 1.04818 2.6569 0.685872 2.91895 0.423828C3.18099 0.161784 3.54102 0 3.93978 0H24.0602C24.4567 0 24.819 0.161784 25.0811 0.423828C25.3431 0.685872 25.5049 1.04818 25.5049 1.44466C25.5026 10.2243 25.5026 17.7484 25.5026 26.5553ZM24.4476 7.81803H3.55241V26.5531C3.55241 26.6602 3.5957 26.7559 3.66634 26.8265C3.73698 26.8971 3.83268 26.9404 3.93978 26.9404H24.0602C24.1673 26.9404 24.263 26.8971 24.3337 26.8265C24.4043 26.7559 24.4476 26.6602 24.4476 26.5531V7.81803Z" fill="black"/>
</g>
<defs>
<clipPath id="clip0_40_482">
<rect width="28" height="28" fill="white"/>
</clipPath>
</defs>
</svg>
