<svg width="28" height="28" viewBox="0 0 28 28" fill="none" xmlns="http://www.w3.org/2000/svg">
<g clip-path="url(#clip0_40_422)">
<path d="M8.96 7.28003C8.68 7.28003 8.36719 7.41128 8.19 7.64753C8.01281 7.88378 7.98 8.15065 7.9975 8.40003C8.03469 8.89878 8.27969 9.39972 8.6975 9.88753C9.53312 10.8632 11.1103 11.76 13.44 11.76C15.6734 11.76 16.9203 11.4603 17.78 11.165C18.6397 10.8697 19.0094 10.64 19.6875 10.64C20.3656 10.64 21.5031 10.896 22.4175 11.6375C23.3319 12.3791 24.08 13.58 24.08 15.68H20.72V15.0325C20.72 14.1641 19.9959 13.44 19.1275 13.44H16.1525C15.2841 13.44 14.56 14.1641 14.56 15.0325V15.6975C10.2288 15.8922 6.05281 18.3313 1.96 24.2025C1.94031 24.2244 1.92281 24.2485 1.9075 24.2725C1.86594 24.3141 1.83094 24.36 1.8025 24.4125C1.78938 24.4344 1.77844 24.4585 1.7675 24.4825C1.22719 25.2722 0.693437 26.1253 0.1575 27.0375C0.144375 27.055 0.133437 27.0725 0.1225 27.09C0.118125 27.0966 0.109375 27.101 0.105 27.1075C0.0984374 27.1141 0.0940626 27.1185 0.0875 27.125C0.0809374 27.136 0.0765626 27.1491 0.07 27.16C0.0634374 27.1666 0.0590626 27.171 0.0525 27.1775C0.0525 27.1885 0.0525 27.2016 0.0525 27.2125C0.0459375 27.2235 0.039375 27.2366 0.035 27.2475C0.0284375 27.2541 0.0240625 27.2585 0.0175 27.265C0.0175 27.2716 0.0175 27.276 0.0175 27.2825C0.0175 27.2935 0.0175 27.3066 0.0175 27.3175C0.0109375 27.3241 0.00656253 27.3285 0 27.335C0 27.346 0 27.3591 0 27.37C0 27.3766 0 27.381 0 27.3875C0 27.3985 0 27.4116 0 27.4225C0 27.4291 0 27.4335 0 27.44C0 27.4575 0 27.475 0 27.4925C0 27.4991 0 27.5035 0 27.51C0 27.521 0 27.5341 0 27.545C0 27.5516 0 27.556 0 27.5625C0.004375 27.5735 0.0109375 27.5866 0.0175 27.5975C0.0175 27.6041 0.0175 27.6085 0.0175 27.615C0.021875 27.626 0.0284375 27.6391 0.035 27.65C0.039375 27.661 0.0459375 27.6741 0.0525 27.685C0.0525 27.6916 0.0525 27.696 0.0525 27.7025C0.0590626 27.7091 0.0634374 27.7135 0.07 27.72C0.0853126 27.7441 0.102813 27.7682 0.1225 27.79C0.126875 27.801 0.133437 27.8141 0.14 27.825C0.146563 27.8316 0.150937 27.836 0.1575 27.8425C0.164063 27.8425 0.168437 27.8425 0.175 27.8425C0.179375 27.8535 0.185937 27.8666 0.1925 27.8775C0.199063 27.8775 0.203437 27.8775 0.21 27.8775C0.220937 27.8907 0.231875 27.9016 0.245 27.9125C0.251563 27.9125 0.255937 27.9125 0.2625 27.9125C0.273437 27.9191 0.286563 27.9257 0.2975 27.93C0.315 27.9432 0.3325 27.9541 0.35 27.965C0.382813 27.9803 0.42 27.9913 0.455 28C0.461563 28 0.465937 28 0.4725 28C0.483437 28 0.496563 28 0.5075 28C0.514063 28 0.518437 28 0.525 28C0.56 28.0022 0.595 28.0022 0.63 28H26.88C27.4925 28 28 27.4925 28 26.88V25.3925C28.0022 25.3641 28.0022 25.3335 28 25.305V25.2C28.0044 25.165 28.0044 25.13 28 25.095V16.345C28.0044 16.31 28.0044 16.275 28 16.24C28 16.216 28 16.1941 28 16.17C28.0022 16.146 28.0022 16.1241 28 16.1C27.9738 12.9938 27.0944 10.7603 25.585 9.32753C24.0538 7.87284 21.9341 7.28003 19.6 7.28003H8.96ZM9.135 8.40003H19.6C21.7459 8.40003 23.5462 8.92722 24.815 10.1325C26.0006 11.2569 26.7663 13.0244 26.8625 15.68H25.2C25.2 13.3 24.2769 11.701 23.1175 10.7625C21.9581 9.82409 20.6238 9.52003 19.6875 9.52003C18.7512 9.52003 18.1803 9.85034 17.4125 10.115C16.6447 10.3797 15.5772 10.64 13.44 10.64C11.3991 10.64 10.1434 9.8569 9.5375 9.15253C9.25969 8.82878 9.16125 8.55315 9.135 8.40003ZM16.1525 14.56H19.1275C19.39 14.56 19.6 14.77 19.6 15.0325V15.68H15.68V15.0325C15.68 14.77 15.89 14.56 16.1525 14.56ZM15.1375 16.8H26.88V24.08H3.43C7.35219 18.7272 11.1694 16.8 15.1375 16.8ZM13.44 19.6C12.8209 19.6 12.32 20.101 12.32 20.72C12.32 21.3391 12.8209 21.84 13.44 21.84C14.0591 21.84 14.56 21.3391 14.56 20.72C14.56 20.101 14.0591 19.6 13.44 19.6ZM17.36 19.6C16.7409 19.6 16.24 20.101 16.24 20.72C16.24 21.3391 16.7409 21.84 17.36 21.84C17.9791 21.84 18.48 21.3391 18.48 20.72C18.48 20.101 17.9791 19.6 17.36 19.6ZM21.28 19.6C20.6609 19.6 20.16 20.101 20.16 20.72C20.16 21.3391 20.6609 21.84 21.28 21.84C21.8991 21.84 22.4 21.3391 22.4 20.72C22.4 20.101 21.8991 19.6 21.28 19.6ZM2.6425 25.2H26.88V25.305C26.88 25.3225 26.88 25.34 26.88 25.3575V26.88H1.5575C1.91625 26.2916 2.28594 25.7294 2.6425 25.2Z" fill="black"/>
</g>
<defs>
<clipPath id="clip0_40_422">
<rect width="28" height="28" fill="white"/>
</clipPath>
</defs>
</svg>
