<svg width="28" height="28" viewBox="0 0 28 28" fill="none" xmlns="http://www.w3.org/2000/svg">
<path d="M5.03986 1.67993C4.11868 1.67993 3.35986 2.43875 3.35986 3.35993V24.6399C3.35986 25.5611 4.11868 26.3199 5.03986 26.3199H22.9599C23.881 26.3199 24.6399 25.5611 24.6399 24.6399V3.35993C24.6399 2.43875 23.881 1.67993 22.9599 1.67993H5.03986ZM5.03986 2.79993H22.9599C23.2763 2.79993 23.5199 3.04351 23.5199 3.35993V24.6399C23.5199 24.9563 23.2763 25.1999 22.9599 25.1999H5.03986C4.72345 25.1999 4.47986 24.9563 4.47986 24.6399V3.35993C4.47986 3.04351 4.72345 2.79993 5.03986 2.79993ZM17.3599 4.47993C17.0628 4.47993 16.7779 4.59793 16.5679 4.80797C16.3579 5.01801 16.2399 5.30289 16.2399 5.59993C16.2399 5.89697 16.3579 6.18185 16.5679 6.39189C16.7779 6.60193 17.0628 6.71993 17.3599 6.71993C17.6569 6.71993 17.9418 6.60193 18.1518 6.39189C18.3619 6.18185 18.4799 5.89697 18.4799 5.59993C18.4799 5.30289 18.3619 5.01801 18.1518 4.80797C17.9418 4.59793 17.6569 4.47993 17.3599 4.47993ZM20.7199 4.47993C20.4228 4.47993 20.1379 4.59793 19.9279 4.80797C19.7179 5.01801 19.5999 5.30289 19.5999 5.59993C19.5999 5.89697 19.7179 6.18185 19.9279 6.39189C20.1379 6.60193 20.4228 6.71993 20.7199 6.71993C21.0169 6.71993 21.3018 6.60193 21.5118 6.39189C21.7219 6.18185 21.8399 5.89697 21.8399 5.59993C21.8399 5.30289 21.7219 5.01801 21.5118 4.80797C21.3018 4.59793 21.0169 4.47993 20.7199 4.47993ZM13.9999 8.39993C10.2952 8.39993 7.27986 11.4153 7.27986 15.1199C7.27986 18.8246 10.2952 21.8399 13.9999 21.8399C17.7035 21.8399 20.7199 18.8247 20.7199 15.1199C20.7199 11.4857 17.8055 8.55225 14.1989 8.4404C14.1356 8.41489 14.0681 8.40117 13.9999 8.39993ZM13.9999 9.51993C17.098 9.51993 19.5999 12.0207 19.5999 15.1199C19.5999 18.2191 17.098 20.7199 13.9999 20.7199C10.9005 20.7199 8.39986 18.2193 8.39986 15.1199C8.39986 12.0206 10.9005 9.51993 13.9999 9.51993ZM11.7511 12.3123C11.6028 12.3146 11.4614 12.3757 11.3581 12.4821C11.2547 12.5885 11.1978 12.7316 11.1999 12.8799C11.1999 14.1817 11.0074 14.3987 10.7285 14.8334C10.4495 15.2681 10.0799 15.926 10.0799 17.3599C10.0788 17.4341 10.0925 17.5078 10.1202 17.5767C10.1479 17.6455 10.1889 17.7082 10.2411 17.7611C10.2932 17.8139 10.3552 17.8559 10.4237 17.8845C10.4922 17.9132 10.5656 17.9279 10.6399 17.9279C10.7141 17.9279 10.7876 17.9132 10.856 17.8845C10.9245 17.8559 10.9866 17.8139 11.0387 17.7611C11.0908 17.7082 11.1319 17.6455 11.1595 17.5767C11.1872 17.5078 11.2009 17.4341 11.1999 17.3599C11.1999 16.0801 11.3902 15.8763 11.6713 15.4382C11.9524 15.0001 12.3199 14.3334 12.3199 12.8799C12.3209 12.805 12.3069 12.7306 12.2786 12.6612C12.2504 12.5918 12.2085 12.5288 12.1555 12.4759C12.1025 12.4229 12.0393 12.3812 11.9699 12.3531C11.9004 12.325 11.826 12.3111 11.7511 12.3123ZM14.5511 12.3123C14.4028 12.3146 14.2614 12.3757 14.1581 12.4821C14.0547 12.5885 13.9978 12.7316 13.9999 12.8799C13.9999 14.1817 13.8074 14.3987 13.5285 14.8334C13.2495 15.2681 12.8799 15.926 12.8799 17.3599C12.8788 17.4341 12.8925 17.5078 12.9202 17.5767C12.9479 17.6455 12.9889 17.7082 13.0411 17.7611C13.0932 17.8139 13.1552 17.8559 13.2237 17.8845C13.2922 17.9132 13.3656 17.9279 13.4399 17.9279C13.5141 17.9279 13.5876 17.9132 13.656 17.8845C13.7245 17.8559 13.7866 17.8139 13.8387 17.7611C13.8908 17.7082 13.9319 17.6455 13.9595 17.5767C13.9872 17.5078 14.0009 17.4341 13.9999 17.3599C13.9999 16.0801 14.1902 15.8763 14.4713 15.4382C14.7524 15.0001 15.1199 14.3334 15.1199 12.8799C15.1209 12.805 15.1069 12.7306 15.0786 12.6612C15.0504 12.5918 15.0085 12.5288 14.9555 12.4759C14.9025 12.4229 14.8393 12.3812 14.7699 12.3531C14.7004 12.325 14.626 12.3111 14.5511 12.3123ZM17.3511 12.3123C17.2028 12.3146 17.0614 12.3757 16.9581 12.4821C16.8547 12.5885 16.7978 12.7316 16.7999 12.8799C16.7999 14.1817 16.6074 14.3987 16.3285 14.8334C16.0495 15.2681 15.6799 15.926 15.6799 17.3599C15.6788 17.4341 15.6925 17.5078 15.7202 17.5767C15.7479 17.6455 15.7889 17.7082 15.8411 17.7611C15.8932 17.8139 15.9552 17.8559 16.0237 17.8845C16.0922 17.9132 16.1656 17.9279 16.2399 17.9279C16.3141 17.9279 16.3876 17.9132 16.456 17.8845C16.5245 17.8559 16.5866 17.8139 16.6387 17.7611C16.6908 17.7082 16.7319 17.6455 16.7595 17.5767C16.7872 17.5078 16.8009 17.4341 16.7999 17.3599C16.7999 16.0801 16.9902 15.8763 17.2713 15.4382C17.5524 15.0001 17.9199 14.3334 17.9199 12.8799C17.9209 12.805 17.9069 12.7306 17.8786 12.6612C17.8504 12.5918 17.8085 12.5288 17.7555 12.4759C17.7025 12.4229 17.6393 12.3812 17.5699 12.3531C17.5004 12.325 17.426 12.3111 17.3511 12.3123Z" fill="black"/>
</svg>
