<svg width="28" height="28" viewBox="0 0 28 28" fill="none" xmlns="http://www.w3.org/2000/svg">
<g clip-path="url(#clip0_40_405)">
<path d="M17.8852 13.4956H10.7673C10.7166 13.4956 10.6753 13.5369 10.6753 13.5876V17.3466C10.6753 17.3973 10.7166 17.4386 10.7673 17.4386H17.8852C17.9359 17.4386 17.9773 17.3973 17.9773 17.3466V13.5876C17.9772 13.5369 17.9359 13.4956 17.8852 13.4956ZM16.8911 16.3525H11.7614V14.5822H16.8911V16.3525Z" fill="black"/>
<path d="M27.908 15.4592C27.9587 15.4592 28 15.4179 28 15.3671V14.1643C28 14.1135 27.9587 14.0722 27.908 14.0722H20.6837V8.34897C20.6805 7.13579 20.276 5.97696 19.5442 5.08522C19.1589 4.62142 18.7 4.25009 18.1797 3.98207C17.6211 3.69829 16.9992 3.54834 16.3814 3.54834C15.7618 3.54834 15.1395 3.69829 14.5805 3.98256C13.8149 4.37631 13.1756 5.00489 12.7316 5.79961C12.305 6.55889 12.0796 7.44067 12.0796 8.34941C12.0796 9.39509 12.9305 10.246 13.9757 10.246C15.0214 10.246 15.8722 9.39514 15.8722 8.34854C15.8691 8.02211 15.9688 7.70738 16.1399 7.5058C16.2198 7.40928 16.2871 7.37018 16.3028 7.36214C16.3414 7.34464 16.3607 7.34103 16.3814 7.34103C16.402 7.34103 16.4217 7.34464 16.4541 7.35896C16.5519 7.41332 16.6458 7.51614 16.7194 7.64859C16.8299 7.84711 16.891 8.09626 16.891 8.34946V10.7893H11.7613V8.34946C11.7613 7.13901 11.3563 5.98018 10.6212 5.08528C10.2383 4.62284 9.78026 4.25195 9.2604 3.98212C8.70182 3.69835 8.07997 3.54839 7.46216 3.54839C6.84081 3.54839 6.21709 3.69835 5.65813 3.98261C4.89081 4.3791 4.25146 5.00718 3.80964 5.79966C3.38313 6.5643 3.15727 7.44614 3.15727 8.34946C3.15727 9.39514 4.0081 10.246 5.05384 10.246C6.09908 10.246 6.94991 9.3952 6.94991 8.34946C6.94991 8.02714 7.05228 7.70426 7.21749 7.50586C7.27316 7.43848 7.32791 7.39046 7.38002 7.36219C7.41956 7.3442 7.4393 7.34108 7.46222 7.34108C7.48016 7.34108 7.49995 7.34469 7.53227 7.35902C7.63016 7.41338 7.72532 7.51663 7.80035 7.64864C7.90896 7.8435 7.96873 8.09271 7.96873 8.34952V14.0724H0.0920391C0.0412891 14.0724 0 14.1137 0 14.1644V15.3671C0 15.4179 0.0412891 15.4592 0.0920391 15.4592H7.96868C7.96868 15.4592 7.96868 22.097 7.96868 22.1038C7.66921 22.2066 7.42 22.3305 7.23324 22.4289L7.02488 22.5407C6.78016 22.6727 6.56824 22.7872 6.33385 22.8742C6.0923 22.9614 5.73672 23.0615 5.12876 23.0647C4.69552 23.0647 4.35559 23.0171 4.02653 22.9098C3.84245 22.8501 3.66778 22.7733 3.44192 22.6539L3.23269 22.5421C2.99113 22.4105 2.71726 22.2619 2.3765 22.1353C1.87677 21.9512 1.33569 21.8618 0.694586 21.8618C0.694148 21.8618 0.0920391 21.8618 0.0920391 21.8618C0.0412891 21.8618 0 21.9031 0 21.9539V23.1567C0 23.2075 0.0412891 23.2487 0.0920391 23.2487H0.693711C1.12383 23.2487 1.46415 23.2954 1.79463 23.4001C2.01955 23.4759 2.20905 23.5684 2.37967 23.656L2.56282 23.7552C2.81154 23.8917 3.09307 24.0458 3.44553 24.175C3.94166 24.3609 4.49214 24.4517 5.12876 24.4517C5.70396 24.4517 6.20501 24.378 6.66121 24.2276C6.97638 24.1243 7.24172 23.995 7.45998 23.8814L7.68939 23.7584C7.92559 23.6308 8.12984 23.5204 8.35794 23.436L8.40509 23.4199C8.45086 23.4041 8.49762 23.3879 8.54968 23.3745C8.8433 23.2887 9.1648 23.2488 9.56167 23.2488C9.99135 23.2488 10.3312 23.2954 10.6626 23.4001C10.7825 23.441 10.8943 23.485 11.0025 23.5348C11.0847 23.573 11.1646 23.6112 11.2476 23.656L11.4317 23.7556C11.6796 23.8917 11.9611 24.0462 12.314 24.175C12.8133 24.3609 13.3638 24.4516 13.9968 24.4516C14.575 24.4516 15.0762 24.3779 15.5292 24.2275C15.8605 24.1189 16.1304 23.9855 16.3279 23.8818L16.5727 23.7512C16.8043 23.6264 17.0046 23.5186 17.2273 23.4356C17.3009 23.4091 17.3768 23.3857 17.4585 23.3624C17.7396 23.2847 18.0489 23.2487 18.4324 23.2487C18.8625 23.2487 19.2029 23.2954 19.5338 23.4001C19.6658 23.4445 19.7857 23.4935 19.9033 23.5496C19.9742 23.5824 20.0452 23.6178 20.1184 23.656L20.3016 23.7552C20.5499 23.8913 20.8318 24.0458 21.1847 24.175C21.684 24.3609 22.2345 24.4517 22.868 24.4517C23.4454 24.4517 23.9469 24.378 24.3999 24.2276C24.7173 24.1248 24.9836 23.995 25.2023 23.8814L25.4214 23.7642C25.6612 23.6345 25.8681 23.5227 26.103 23.4383C26.3392 23.3498 26.6894 23.2488 27.3063 23.2488H27.908C27.9587 23.2488 28 23.2075 28 23.1568V21.9539C28 21.9032 27.9587 21.8619 27.908 21.8619H27.3063C26.7311 21.8619 26.23 21.9342 25.7743 22.0828C25.4425 22.1914 25.1726 22.3247 24.9746 22.4289L24.7717 22.538C24.5252 22.6714 24.3119 22.7867 24.0762 22.8743C23.8347 22.9614 23.4786 23.0616 22.868 23.0647C22.4406 23.0647 22.0903 23.0157 21.7657 22.9098C21.5817 22.8501 21.407 22.7733 21.1816 22.6543L21.0016 22.5574C20.9015 22.503 20.796 22.446 20.6837 22.3894V15.4592H27.908ZM16.8911 22.0859C16.5794 22.1887 16.3172 22.3166 16.1008 22.4289L15.8875 22.5438C15.646 22.6745 15.4372 22.7876 15.2015 22.8742C14.9626 22.9614 14.6097 23.0615 13.9968 23.0647C13.5694 23.0647 13.2192 23.0157 12.8946 22.9098C12.7118 22.8505 12.5372 22.7737 12.3105 22.6543L12.125 22.5546C12.0114 22.4931 11.8915 22.4284 11.7613 22.3634V20.1453H16.8911C16.8911 20.1453 16.8911 22.0849 16.8911 22.0859ZM19.5976 21.9812C19.2433 21.9008 18.8738 21.8618 18.4711 21.8618H18.4325C18.2717 21.8618 18.1213 21.8676 17.9772 21.8779V19.1512C17.9772 19.1005 17.9359 19.0592 17.8852 19.0592H10.7673C10.7165 19.0592 10.6752 19.1005 10.6752 19.1512V21.9704C10.3416 21.8981 9.97795 21.8618 9.56397 21.8618C9.56309 21.8618 9.56266 21.8618 9.56173 21.8618C9.3736 21.8618 9.20708 21.8685 9.05527 21.882V8.34936C9.05527 7.90305 8.94797 7.47786 8.74546 7.12003C8.5645 6.79322 8.30949 6.53543 8.02752 6.39357C7.84301 6.30016 7.65712 6.25439 7.45954 6.25439C7.26201 6.25439 7.07613 6.30016 6.89199 6.39357C6.70879 6.48517 6.53324 6.62976 6.38466 6.81116C6.05374 7.20721 5.86381 7.76797 5.86381 8.34941C5.86381 8.79615 5.50052 9.15944 5.05384 9.15944C4.60709 9.15944 4.2438 8.79615 4.2438 8.34941C4.2438 7.6324 4.42165 6.93333 4.75836 6.32849C5.09868 5.72146 5.58135 5.24414 6.15382 4.94916C6.55703 4.7431 7.00913 4.63443 7.46216 4.63443C7.91115 4.63443 8.3615 4.7431 8.76466 4.94916C9.15037 5.14768 9.49386 5.42647 9.78523 5.77664C10.359 6.47439 10.6751 7.38762 10.6751 8.34936V11.7837C10.6751 11.8344 10.7165 11.8758 10.7671 11.8758H17.8851C17.9357 11.8758 17.9771 11.8344 17.9771 11.7837V8.34936C17.9771 7.90267 17.8698 7.47742 17.6677 7.12003C17.4864 6.79229 17.23 6.53455 16.9471 6.394C16.7653 6.30016 16.5798 6.25439 16.3814 6.25439C16.1839 6.25439 15.998 6.30016 15.8139 6.39357C15.6334 6.48429 15.4569 6.62839 15.3034 6.81116C14.9715 7.21213 14.783 7.77289 14.7861 8.34941C14.7861 8.79615 14.4225 9.15944 13.9757 9.15944C13.529 9.15944 13.1657 8.79615 13.1657 8.34941C13.1657 7.62743 13.3435 6.92885 13.6803 6.32849C14.0206 5.72146 14.5033 5.24464 15.0762 4.94916C15.4794 4.7431 15.9315 4.63443 16.3845 4.63443C16.8335 4.63443 17.2838 4.7431 17.6866 4.94916C18.0754 5.15079 18.418 5.42959 18.7045 5.77664C19.2774 6.47303 19.5944 7.38675 19.5975 8.34936L19.5976 21.9812Z" fill="black"/>
</g>
<defs>
<clipPath id="clip0_40_405">
<rect width="28" height="28" fill="white"/>
</clipPath>
</defs>
</svg>
