<svg width="28" height="28" viewBox="0 0 28 28" fill="none" xmlns="http://www.w3.org/2000/svg">
<g clip-path="url(#clip0_178_2062)">
<path d="M7.24845 0H20.7517C21.1368 0 21.4877 0.157227 21.7406 0.410156C21.9936 0.663086 22.1508 1.014 22.1508 1.39909V8.15983V24.9603C22.1508 25.3454 21.9936 25.6963 21.7406 25.9492C21.4877 26.2021 21.1368 26.3594 20.7517 26.3594H19.6375V26.9792C19.6375 27.542 19.1772 28.0023 18.6143 28.0023C18.0515 28.0023 17.5912 27.542 17.5912 26.9792V26.3594H10.4454V26.9792C10.4454 27.542 9.98511 28.0023 9.42228 28.0023C8.85946 28.0023 8.39917 27.542 8.39917 26.9792V26.3594H7.24845C6.86336 26.3594 6.51245 26.2021 6.25952 25.9492C6.00659 25.6963 5.84937 25.3454 5.84937 24.9603V8.15983V1.39909C5.84937 1.014 6.00659 0.663086 6.25952 0.410156C6.51245 0.157227 6.86336 0 7.24845 0ZM8.17358 10.2288C8.17358 9.9235 8.42196 9.67513 8.72729 9.67513C9.03263 9.67513 9.28101 9.9235 9.28101 10.2288V14.8773C9.28101 15.1826 9.03263 15.431 8.72729 15.431C8.42196 15.431 8.17358 15.1826 8.17358 14.8773V10.2288ZM8.17358 2.36751C8.17358 2.06217 8.42196 1.8138 8.72729 1.8138C9.03263 1.8138 9.28101 2.06217 9.28101 2.36751V5.81966C9.28101 6.125 9.03263 6.37337 8.72729 6.37337C8.42196 6.37337 8.17358 6.125 8.17358 5.81966V2.36751ZM6.95907 7.60384H21.0434V1.39909C21.0434 1.31934 21.0115 1.24642 20.9568 1.19401C20.9044 1.1416 20.8315 1.10742 20.7517 1.10742H7.24845C7.1687 1.10742 7.09578 1.13932 7.04338 1.19401C6.99097 1.24642 6.95679 1.31934 6.95679 1.39909V7.60384H6.95907ZM21.0411 8.71354H6.95907V24.958C6.95907 25.0378 6.99097 25.1107 7.04565 25.1631C7.09806 25.2155 7.17098 25.2497 7.25073 25.2497H20.7517C20.8315 25.2497 20.9044 25.2178 20.9568 25.1631C21.0092 25.1107 21.0434 25.0378 21.0434 24.958V8.71354H21.0411Z" fill="black"/>
</g>
<defs>
<clipPath id="clip0_178_2062">
<rect width="28" height="28" fill="white"/>
</clipPath>
</defs>
</svg>
