<svg width="28" height="28" viewBox="0 0 28 28" fill="none" xmlns="http://www.w3.org/2000/svg">
<g clip-path="url(#clip0_40_408)">
<path d="M26.4951 0.034912C25.9876 0.069912 25.5194 0.395849 25.3576 0.927412V0.944912C25.3532 0.958037 25.3488 0.971162 25.3401 0.979912L19.1101 17.1674C17.9813 17.6509 16.4041 18.4668 15.0326 19.6174C13.5713 20.8424 12.3201 22.4634 12.3201 24.4649C12.3201 25.3224 12.6373 26.2412 13.3701 26.9149C14.1029 27.5887 15.2207 27.9999 16.7476 27.9999H27.4401C27.7201 27.9912 27.9498 27.779 27.9804 27.5012C28.011 27.2234 27.8338 26.9674 27.5626 26.8974C27.5626 26.8974 25.5676 26.4359 23.9401 25.1649C23.1263 24.5305 22.4176 23.7102 22.0676 22.6624C21.7176 21.6146 21.7023 20.3196 22.3651 18.6374C22.3651 18.6265 22.3651 18.6133 22.3651 18.6024L27.8951 1.83741L27.9126 1.80241H27.8951C28.1619 1.12429 27.7966 0.378349 27.0901 0.139912L27.1076 0.104912C27.0901 0.0983493 27.0726 0.111475 27.0551 0.104912C27.0376 0.100537 27.0376 0.0742872 27.0201 0.069912L27.0026 0.104912C26.8341 0.0502245 26.6635 0.0239745 26.4951 0.034912ZM26.6526 1.13741C26.681 1.14616 26.7094 1.15054 26.7401 1.15491C26.8473 1.18116 26.891 1.33429 26.8626 1.39991C26.856 1.41741 26.8494 1.43491 26.8451 1.45241L21.4901 17.7099L20.2651 17.2549L26.3901 1.31241C26.3966 1.29491 26.4032 1.27741 26.4076 1.25991C26.4338 1.15272 26.5869 1.10897 26.6526 1.13741ZM9.01257 2.29241C7.2757 2.29241 5.71164 3.19804 4.76007 4.65491C4.4232 4.65491 4.20007 4.70085 3.92007 4.81241L4.70757 5.70491C4.87601 5.64804 4.97664 5.65679 5.14507 5.59991H5.42507L5.54757 5.37241C6.21914 4.14085 7.56007 3.35991 8.96007 3.35991C10.7516 3.35991 12.3266 4.59804 12.7751 6.33491L12.8801 6.77241H13.4401C14.5032 6.77241 15.3476 7.50085 15.6276 8.45241H16.8001C16.5201 6.94085 15.2841 5.76397 13.7726 5.65241C13.0441 3.63554 11.1957 2.29241 9.01257 2.29241ZM1.06757 3.34241C1.04351 3.34679 1.01945 3.35335 0.997573 3.35991C0.805073 3.39929 0.645385 3.53929 0.581948 3.72522C0.516323 3.91116 0.555698 4.11897 0.682573 4.26991L2.20507 6.12491C1.66914 6.76585 1.2907 7.53585 1.17257 8.39991H2.29257C2.39101 7.87054 2.60539 7.38054 2.90507 6.96491L4.55007 8.95991H0.560073C0.391635 8.95991 0.216635 9.02335 0.105073 9.13491C-0.00648981 9.30335 7.27154e-05 9.45648 7.27154e-05 9.62491L2.80007 27.5449C2.85695 27.768 3.08007 27.9999 3.36007 27.9999H14.0001C13.3832 27.7199 12.9369 27.3284 12.6001 26.8799H3.86757L1.22507 10.0799H5.46007L7.91007 13.0549C7.86195 13.173 7.84007 13.2999 7.84007 13.4399C7.84007 14.0568 8.3432 14.5599 8.96007 14.5599C9.57695 14.5599 10.0801 14.0568 10.0801 13.4399C10.0801 12.823 9.57695 12.3199 8.96007 12.3199C8.90101 12.3199 8.84195 12.3265 8.78507 12.3374L1.55757 3.56991C1.54664 3.55679 1.5357 3.54585 1.52257 3.53491C1.51164 3.51741 1.5007 3.49991 1.48757 3.48241C1.45476 3.46054 1.41976 3.44304 1.38257 3.42991C1.37164 3.41679 1.3607 3.40585 1.34757 3.39491C1.31476 3.3796 1.27757 3.36866 1.24257 3.35991C1.1857 3.3446 1.12664 3.33804 1.06757 3.34241ZM7.33257 8.95991L8.22507 10.0799H16.6951L15.3476 18.6549C15.796 18.318 16.1766 18.038 16.6251 17.8149L17.9201 9.62491C17.9201 9.45648 17.9266 9.29897 17.8151 9.18741C17.7035 9.01898 17.5285 8.95991 17.3601 8.95991H7.33257ZM19.5651 18.1824L21.1226 18.7599C20.5844 20.4005 20.6063 21.8333 21.0001 23.0124C21.4376 24.3227 22.3038 25.3093 23.2401 26.0399C23.7585 26.4446 24.2485 26.6152 24.7626 26.8799H22.0326C20.6435 26.7005 20.0201 26.1821 19.7051 25.6199C19.3901 25.0577 19.3901 24.3708 19.5301 23.8349C19.5826 23.6577 19.5454 23.4674 19.4294 23.3252C19.3135 23.1808 19.1363 23.1043 18.9526 23.1174C18.7054 23.1349 18.4998 23.3121 18.4451 23.5549C18.2482 24.3074 18.2263 25.2874 18.7251 26.1799C18.8651 26.4337 19.0576 26.6633 19.2851 26.8799H18.9351C17.7998 26.8799 17.1238 26.6196 16.7476 26.3024C16.3713 25.9852 16.2116 25.5849 16.2051 25.0599C16.1941 24.0077 16.9488 22.5727 17.6576 21.8399C17.8304 21.6758 17.8785 21.4199 17.7801 21.2034C17.6816 20.9868 17.4563 20.8555 17.2201 20.8774C17.0801 20.8883 16.9488 20.9496 16.8526 21.0524C15.936 21.9996 15.0676 23.5527 15.0851 25.0774C15.0916 25.6746 15.271 26.2915 15.6626 26.7924C14.9494 26.6633 14.4594 26.4009 14.1226 26.0924C13.6391 25.6462 13.4401 25.0643 13.4401 24.4649C13.4401 22.938 14.4244 21.5884 15.7501 20.4749C17.0035 19.4227 18.5151 18.6308 19.5651 18.1824Z" fill="black"/>
</g>
<defs>
<clipPath id="clip0_40_408">
<rect width="28" height="28" fill="white"/>
</clipPath>
</defs>
</svg>
