<svg width="28" height="28" viewBox="0 0 28 28" fill="none" xmlns="http://www.w3.org/2000/svg">
<g clip-path="url(#clip0_40_420)">
<path d="M5.847 5.67167C5.75586 5.76281 5.63509 5.80839 5.5166 5.80839C5.39583 5.80839 5.27734 5.76281 5.1862 5.67167C5.09505 5.58052 5.04948 5.45975 5.04948 5.34126C5.04948 5.2205 5.09505 5.10201 5.1862 5.01086C5.35254 4.84452 5.40039 4.69413 5.38216 4.55057C5.36393 4.39335 5.27506 4.22473 5.17708 4.04471C5.00846 3.72798 4.82617 3.39074 4.76921 2.98059C4.70996 2.56587 4.77832 2.08964 5.11328 1.51086L5.11556 1.50175C5.17936 1.39465 5.2819 1.32173 5.39355 1.28983C5.50749 1.25793 5.63509 1.2716 5.74674 1.33541C5.8584 1.39921 5.93359 1.50403 5.96549 1.61796C5.9974 1.73189 5.98372 1.85949 5.91992 1.97115C5.71484 2.32889 5.67611 2.62512 5.71484 2.88488C5.75586 3.14693 5.88118 3.38163 5.99967 3.60038C6.17513 3.92623 6.33691 4.22929 6.35742 4.56425C6.38021 4.90832 6.25488 5.26379 5.847 5.67167ZM3.21061 11.0174H24.7461C24.8327 11.0174 24.917 11.0356 24.9945 11.0675C25.0697 11.0994 25.1357 11.1427 25.195 11.1974C25.1995 11.1997 25.2041 11.2042 25.2087 11.2088C25.3271 11.3273 25.4001 11.4891 25.4001 11.6691V13.1206H27.5329C27.6628 13.1206 27.779 13.173 27.8633 13.2573C27.9476 13.3416 28 13.4601 28 13.5877C28 13.7176 27.9476 13.8338 27.8633 13.9181L27.8564 13.9249C27.7721 14.0047 27.6582 14.0548 27.5329 14.0548H25.4001V23.6479C25.4001 24.0626 25.3158 24.4591 25.1654 24.8214C25.0081 25.1974 24.7803 25.5369 24.4977 25.8195C24.2152 26.102 23.8757 26.3321 23.4997 26.4871C23.1374 26.6375 22.7409 26.7218 22.3262 26.7218H5.63509C5.22038 26.7218 4.82389 26.6375 4.46159 26.4871C4.08561 26.3299 3.74609 26.102 3.46354 25.8172C3.18099 25.5346 2.95085 25.1951 2.79362 24.8191C2.64323 24.4568 2.55892 24.0603 2.55892 23.6456V14.0594H0.469401C0.339518 14.0594 0.223307 14.007 0.138997 13.9226C0.0524089 13.8361 0 13.7198 0 13.59C0 13.4601 0.0524089 13.3439 0.136719 13.2596C0.221029 13.1752 0.339518 13.1228 0.467122 13.1228H2.55892V11.6713C2.55892 11.5848 2.57715 11.5004 2.60905 11.423C2.64323 11.3432 2.69108 11.2703 2.75033 11.2111C2.86881 11.0926 3.03288 11.0174 3.21061 11.0174ZM24.4613 11.9562H3.49772V23.6502C3.49772 23.9396 3.55469 24.213 3.6595 24.4659C3.76888 24.728 3.92839 24.9627 4.12663 25.1609C4.32487 25.3592 4.55957 25.5187 4.82161 25.628C5.07227 25.7329 5.34798 25.7898 5.63737 25.7898H22.3284C22.6156 25.7898 22.8913 25.7329 23.1419 25.628C23.4017 25.5187 23.6387 25.3592 23.8369 25.1632C24.0352 24.965 24.1947 24.7303 24.3018 24.4682C24.4066 24.2176 24.4635 23.9419 24.4635 23.6547V11.9562H24.4613ZM4.57096 13.5444C4.57096 13.4145 4.62337 13.2983 4.70768 13.214C4.79199 13.1297 4.91048 13.0773 5.03809 13.0773C5.16797 13.0773 5.28418 13.1297 5.36849 13.214C5.4528 13.2983 5.50521 13.4168 5.50521 13.5444V19.7172C5.50521 19.8471 5.4528 19.9633 5.36849 20.0476C5.28418 20.132 5.16569 20.1844 5.03809 20.1844C4.9082 20.1844 4.79199 20.132 4.70768 20.0476L4.70085 20.0408C4.62109 19.9565 4.57096 19.8426 4.57096 19.7172V13.5444ZM9.18294 7.07076C8.3763 7.18697 7.65169 7.33508 7.00911 7.51054C6.36426 7.68827 5.79687 7.89563 5.30924 8.13261C4.96745 8.29895 4.66439 8.47896 4.40234 8.67265C4.21777 8.80709 4.05371 8.95064 3.90788 9.09875H24.0579C23.9235 8.95748 23.7686 8.82304 23.5954 8.69543C23.3424 8.51086 23.0485 8.33996 22.7158 8.18501C22.2419 7.96171 21.6904 7.7703 21.0729 7.60168C20.4508 7.43306 19.7627 7.29406 19.0199 7.17785C18.6826 7.12544 18.3408 7.07759 17.9967 7.0343H17.9922C17.6527 6.991 17.3109 6.95455 16.9645 6.92037C16.625 6.88847 16.2809 6.85884 15.93 6.83606C15.5837 6.81327 15.2396 6.79504 14.8978 6.78137C14.7679 6.77681 14.654 6.71985 14.5719 6.63326C14.4899 6.54667 14.4421 6.42818 14.4466 6.2983V6.29602C14.4489 6.22082 14.4694 6.15018 14.5036 6.08866C14.5378 6.02486 14.5879 5.97245 14.6471 5.92916C14.7201 5.87447 14.7884 5.81294 14.8477 5.74231C14.9069 5.67395 14.957 5.59647 14.998 5.51672C15.0391 5.43697 15.071 5.35266 15.0915 5.25923C15.112 5.17037 15.1234 5.07922 15.1234 4.98352C15.1234 4.82401 15.0915 4.67362 15.0345 4.5369C14.9753 4.39563 14.8887 4.26574 14.7816 4.15865C14.6745 4.05155 14.5446 3.96268 14.4033 3.90572C14.2666 3.84875 14.1162 3.81685 13.9567 3.81685C13.7972 3.81685 13.6468 3.84875 13.5101 3.90572C13.3665 3.96496 13.2389 4.05155 13.1318 4.16093C13.0247 4.26802 12.9359 4.39791 12.8789 4.53918C12.8219 4.6759 12.79 4.82629 12.79 4.9858C12.79 5.07922 12.8014 5.17037 12.8197 5.25695C12.8402 5.34582 12.8721 5.43241 12.9108 5.50988C12.9518 5.58964 13.002 5.66711 13.0589 5.73547C13.1182 5.80611 13.1842 5.86991 13.2572 5.92232C13.3597 5.99979 13.4235 6.11145 13.4395 6.22994C13.4554 6.34843 13.4281 6.47375 13.3506 6.57629C13.305 6.63554 13.2503 6.68111 13.1888 6.71301C13.1296 6.74263 13.0635 6.76086 12.9974 6.76314H12.9837H12.9746C12.6624 6.76998 12.3434 6.78137 12.0221 6.79732C11.7054 6.81327 11.3841 6.83378 11.0537 6.86112C10.7347 6.88619 10.418 6.91581 10.1081 6.95227C9.7959 6.98645 9.48828 7.02518 9.18294 7.07076ZM4.90137 7.28951C5.43457 7.03202 6.04753 6.80643 6.74251 6.61503C7.43294 6.42362 8.20312 6.2664 9.05078 6.14335C9.36751 6.09778 9.68652 6.05676 10.0078 6.0203C10.3337 5.98384 10.6549 5.95194 10.9785 5.92688C11.1768 5.91093 11.3841 5.89725 11.596 5.88358C11.7419 5.87447 11.8923 5.86763 12.0426 5.8608C11.9857 5.73547 11.9401 5.60331 11.9082 5.46887C11.8717 5.31392 11.8512 5.15214 11.8512 4.9858C11.8512 4.70097 11.9082 4.42981 12.0107 4.18143C12.1178 3.92395 12.2751 3.69152 12.4688 3.49784C12.6624 3.30416 12.8949 3.14693 13.1523 3.04211C13.4007 2.93957 13.6719 2.88261 13.9567 2.88261C14.2415 2.88261 14.5127 2.93957 14.7611 3.04211C15.0186 3.14921 15.251 3.30643 15.4447 3.49784C15.6383 3.69152 15.7956 3.92395 15.9027 4.18143C16.0052 4.42981 16.0622 4.70097 16.0622 4.9858C16.0622 5.15442 16.0417 5.31848 16.0029 5.47798C15.9688 5.62154 15.9186 5.76054 15.8548 5.8927C16.028 5.90409 16.1966 5.91548 16.3607 5.92916C16.5817 5.94511 16.8118 5.96561 17.0488 5.9884C17.402 6.02258 17.7529 6.06132 18.1061 6.10689C18.4593 6.15018 18.8102 6.20031 19.1589 6.255C19.9495 6.37805 20.6764 6.52844 21.3327 6.70617C21.9935 6.88619 22.5882 7.09582 23.1077 7.33964C23.6501 7.59257 24.1126 7.88423 24.4863 8.21692C24.8646 8.55188 25.1517 8.92785 25.3454 9.3494C25.3613 9.3813 25.375 9.41548 25.3841 9.45422C25.3932 9.49068 25.3978 9.52714 25.3978 9.56587C25.3978 9.69576 25.3454 9.81197 25.2611 9.89628L25.2542 9.90311C25.1699 9.98287 25.056 10.033 24.9307 10.033H2.98275C2.97363 10.033 2.9668 10.033 2.95996 10.0307C2.93034 10.0284 2.89844 10.0239 2.87109 10.017C2.83919 10.0079 2.80729 9.99654 2.77539 9.98059C2.76855 9.97831 2.76172 9.97375 2.75488 9.96919C2.64779 9.90767 2.57259 9.80969 2.53841 9.69804C2.50423 9.58638 2.51107 9.46334 2.56803 9.35396C2.57031 9.34712 2.57487 9.34029 2.57943 9.33345C2.80273 8.92102 3.10579 8.54276 3.49316 8.20096C3.87826 7.86373 4.34766 7.55839 4.90137 7.28951ZM18.596 5.00858C18.6872 5.09973 18.7327 5.2205 18.7327 5.33899C18.7327 5.45975 18.6872 5.57824 18.596 5.66939C18.5049 5.76054 18.3841 5.80611 18.2656 5.80611C18.1449 5.80611 18.0264 5.76054 17.9352 5.66939C17.5273 5.26151 17.402 4.90604 17.4225 4.56425C17.443 4.22929 17.6071 3.92623 17.7803 3.60038C18.0081 3.17199 18.2702 2.68436 17.86 1.97115L17.8555 1.96203C17.7939 1.85266 17.7826 1.72733 17.8145 1.61568C17.8464 1.49947 17.9215 1.39693 18.0332 1.33313C18.1449 1.26932 18.2725 1.25565 18.3864 1.28755C18.5026 1.31945 18.6051 1.39465 18.6689 1.5063C19.0039 2.08508 19.0723 2.56132 19.013 2.97375C18.9538 3.38391 18.7738 3.72343 18.6051 4.03788C18.4229 4.38423 18.2656 4.67818 18.596 5.00858ZM22.1279 5.00858C22.2191 5.09973 22.2646 5.2205 22.2646 5.33899C22.2646 5.45975 22.2191 5.57824 22.1279 5.66939C22.0368 5.76054 21.916 5.80611 21.7975 5.80611C21.6768 5.80611 21.5583 5.76054 21.4671 5.66939C21.0592 5.26151 20.9339 4.90604 20.9544 4.56425C20.9749 4.22929 21.139 3.92623 21.3122 3.60038C21.4284 3.38163 21.556 3.14693 21.597 2.88488C21.638 2.62512 21.5993 2.32889 21.3919 1.97115C21.3281 1.85949 21.3145 1.73189 21.3464 1.61796C21.3783 1.50175 21.4534 1.39921 21.5651 1.33541C21.6768 1.2716 21.8044 1.25793 21.9183 1.28983C22.0322 1.32173 22.137 1.39693 22.2008 1.50858C22.5358 2.08736 22.6042 2.5636 22.5449 2.97603C22.4857 3.38619 22.3057 3.7257 22.137 4.04016C22.0413 4.22017 21.9502 4.38879 21.932 4.54602C21.9137 4.69413 21.9616 4.84224 22.1279 5.00858ZM9.37891 5.67167C9.28776 5.76281 9.16699 5.80839 9.0485 5.80839C8.92773 5.80839 8.80924 5.76281 8.7181 5.67167C8.62695 5.58052 8.58138 5.45975 8.58138 5.34126C8.58138 5.2205 8.62695 5.10201 8.7181 5.01086C9.05078 4.67818 8.89355 4.38423 8.70898 4.04244C8.54036 3.7257 8.35807 3.38847 8.30111 2.97603C8.24186 2.56132 8.31022 2.08508 8.64518 1.5063C8.70898 1.39465 8.8138 1.31945 8.93001 1.28983C9.04622 1.26021 9.17155 1.2716 9.2832 1.33768C9.39486 1.40149 9.47005 1.5063 9.49967 1.62251C9.5293 1.73873 9.5179 1.86405 9.45182 1.9757C9.04167 2.68664 9.30371 3.17655 9.53158 3.60266C9.70703 3.9285 9.86882 4.23156 9.88932 4.56652C9.91211 4.90832 9.7845 5.26379 9.37891 5.67167Z" fill="black"/>
</g>
<defs>
<clipPath id="clip0_40_420">
<rect width="28" height="28" fill="white"/>
</clipPath>
</defs>
</svg>
