<svg width="28" height="28" viewBox="0 0 28 28" fill="none" xmlns="http://www.w3.org/2000/svg">
<path d="M0.583252 3.96655C2.82325 3.96655 2.82325 5.07489 5.05159 5.07489C7.27992 5.07489 7.29158 3.96655 9.51992 3.96655C11.7483 3.96655 11.7599 5.07489 13.9883 5.07489C16.2166 5.07489 16.2283 3.96655 18.4566 3.96655C20.6849 3.96655 20.6966 5.07489 22.9366 5.07489C25.1766 5.07489 25.1766 3.96655 27.4166 3.96655" stroke="#020202" stroke-width="1.5" stroke-miterlimit="10"/>
<path d="M0.583252 10.675C2.82325 10.675 2.82325 11.7834 5.05159 11.7834C7.27992 11.7834 7.29158 10.675 9.51992 10.675C11.7483 10.675 11.7599 11.7834 13.9883 11.7834C16.2166 11.7834 16.2283 10.675 18.4566 10.675C20.6849 10.675 20.6966 11.7834 22.9366 11.7834C25.1766 11.7834 25.1766 10.675 27.4166 10.675" stroke="#020202" stroke-width="1.5" stroke-miterlimit="10"/>
<path d="M0.583252 17.3833C2.82325 17.3833 2.82325 18.4916 5.05159 18.4916C7.27992 18.4916 7.29158 17.3833 9.51992 17.3833C11.7483 17.3833 11.7599 18.4916 13.9883 18.4916C16.2166 18.4916 16.2283 17.3833 18.4566 17.3833C20.6849 17.3833 20.6966 18.4916 22.9366 18.4916C25.1766 18.4916 25.1766 17.3833 27.4166 17.3833" stroke="#020202" stroke-width="1.5" stroke-miterlimit="10"/>
<path d="M0.583252 24.0916C2.82325 24.0916 2.82325 25.2582 5.05159 25.2582C7.27992 25.2582 7.29158 24.0916 9.51992 24.0916C11.7483 24.0916 11.7599 25.2582 13.9883 25.2582C16.2166 25.2582 16.2283 24.0916 18.4566 24.0916C20.6849 24.0916 20.6966 25.2582 22.9366 25.2582C25.1766 25.2582 25.1766 24.0916 27.4166 24.0916" stroke="#020202" stroke-width="1.5" stroke-miterlimit="10"/>
</svg>
