<svg width="28" height="24" viewBox="0 0 28 24" fill="none" xmlns="http://www.w3.org/2000/svg">
<path fill-rule="evenodd" clip-rule="evenodd" d="M25.5652 23.5652H4.26087C3.61512 23.5652 2.99583 23.3087 2.53922 22.8521C2.08261 22.3955 1.82609 21.7762 1.82609 21.1305V9.47881C1.30439 9.3453 0.841876 9.04214 0.511307 8.61703C0.180739 8.19192 0.000871384 7.66898 0 7.13047V5.30438C0.0013578 5.21271 0.0236344 5.12256 0.0651304 5.04081C0.0651304 5.03534 0.0724348 5.03168 0.0754782 5.02681C0.115814 4.95078 0.172079 4.88434 0.240435 4.83203L4.39783 0.678293C4.45236 0.60408 4.52331 0.543485 4.60515 0.501247C4.68699 0.459009 4.77748 0.436273 4.86957 0.434814H25.5652C26.211 0.434814 26.8303 0.691335 27.2869 1.14795C27.7435 1.60456 28 2.22385 28 2.8696V21.1305C28 21.7762 27.7435 22.3955 27.2869 22.8521C26.8303 23.3087 26.211 23.5652 25.5652 23.5652ZM8.52174 22.3479V16.8696H6.08696V22.3479H8.52174ZM1.21739 7.13047C1.21739 7.45334 1.34565 7.76299 1.57396 7.99129C1.80226 8.2196 2.11191 8.34786 2.43478 8.34786C2.75765 8.34786 3.0673 8.2196 3.29561 7.99129C3.52391 7.76299 3.65217 7.45334 3.65217 7.13047V5.91307H1.21739V7.13047ZM5.10148 1.65221L2.058 4.69568H4.02896L7.07243 1.65221H5.10148ZM4.86957 7.13047C4.86957 7.45334 4.99783 7.76299 5.22613 7.99129C5.45444 8.2196 5.76408 8.34786 6.08696 8.34786C6.40983 8.34786 6.71948 8.2196 6.94778 7.99129C7.17609 7.76299 7.30435 7.45334 7.30435 7.13047V5.91307H4.86957V7.13047ZM8.75365 1.65221L5.71017 4.69568H7.68113L10.7246 1.65221H8.75365ZM8.52174 7.13047C8.52174 7.45334 8.65 7.76299 8.8783 7.99129C9.10661 8.2196 9.41626 8.34786 9.73913 8.34786C10.062 8.34786 10.3717 8.2196 10.6 7.99129C10.8283 7.76299 10.9565 7.45334 10.9565 7.13047V5.91307H8.52174V7.13047ZM12.4058 1.65221L9.36235 4.69568H11.3333L14.3768 1.65221H12.4058ZM12.1739 7.13047C12.1739 7.45334 12.3022 7.76299 12.5305 7.99129C12.7588 8.2196 13.0684 8.34786 13.3913 8.34786C13.7142 8.34786 14.0238 8.2196 14.2521 7.99129C14.4804 7.76299 14.6087 7.45334 14.6087 7.13047V5.91307H12.1739V7.13047ZM16.058 1.65221L13.0145 4.69568H14.9855L18.029 1.65221H16.058ZM18.8696 2.49281L15.8261 5.53629V7.13047C15.828 7.62603 15.6781 8.11029 15.3965 8.51808C15.1149 8.92587 14.7151 9.23762 14.251 9.4114C13.7869 9.58517 13.2807 9.61262 12.8005 9.49006C12.3204 9.3675 11.8893 9.1008 11.5652 8.72586C11.3393 8.98912 11.0592 9.20042 10.744 9.34529C10.4288 9.49016 10.086 9.56516 9.73913 9.56516C9.39224 9.56516 9.04945 9.49016 8.73426 9.34529C8.41907 9.20042 8.13893 8.98912 7.91304 8.72586C7.68715 8.98912 7.40701 9.20042 7.09182 9.34529C6.77663 9.49016 6.43385 9.56516 6.08696 9.56516C5.74007 9.56516 5.39728 9.49016 5.08209 9.34529C4.7669 9.20042 4.48676 8.98912 4.26087 8.72586C3.93968 9.0934 3.5156 9.35612 3.04348 9.48003V21.1305C3.04348 21.4533 3.17174 21.763 3.40004 21.9913C3.62835 22.2196 3.938 22.3479 4.26087 22.3479H4.86957V16.2609C4.86957 16.0995 4.9337 15.9446 5.04785 15.8305C5.162 15.7163 5.31682 15.6522 5.47826 15.6522H9.13043C9.29187 15.6522 9.4467 15.7163 9.56085 15.8305C9.675 15.9446 9.73913 16.0995 9.73913 16.2609V22.3479H17.6522C17.975 22.3479 18.2847 22.2196 18.513 21.9913C18.7413 21.763 18.8696 21.4533 18.8696 21.1305V2.49281ZM26.7826 2.8696C26.7826 2.54672 26.6543 2.23708 26.426 2.00877C26.1977 1.78047 25.8881 1.65221 25.5652 1.65221H20.087V21.1305C20.0847 21.5591 19.9681 21.9794 19.7491 22.3479H25.5652C25.8881 22.3479 26.1977 22.2196 26.426 21.9913C26.6543 21.763 26.7826 21.4533 26.7826 21.1305V2.8696ZM16.4348 16.8696H11.5652C11.4038 16.8696 11.249 16.8055 11.1348 16.6913C11.0207 16.5772 10.9565 16.4223 10.9565 16.2609V12C10.9565 11.8386 11.0207 11.6838 11.1348 11.5696C11.249 11.4555 11.4038 11.3913 11.5652 11.3913H16.4348C16.5962 11.3913 16.751 11.4555 16.8652 11.5696C16.9793 11.6838 17.0435 11.8386 17.0435 12V16.2609C17.0435 16.4223 16.9793 16.5772 16.8652 16.6913C16.751 16.8055 16.5962 16.8696 16.4348 16.8696ZM15.8261 12.6087H12.1739V15.6522H15.8261V12.6087Z" fill="black"/>
</svg>
