<svg width="28" height="28" viewBox="0 0 28 28" fill="none" xmlns="http://www.w3.org/2000/svg">
<path d="M3.92 3.36011C3.77149 3.36014 3.62907 3.41915 3.52406 3.52417L1.84406 5.20417C1.77566 5.27249 1.72612 5.35736 1.70024 5.45051C1.67437 5.54366 1.67305 5.64192 1.69641 5.73573L2.25641 7.97573C2.28668 8.09698 2.35664 8.20461 2.45514 8.28151C2.55364 8.35841 2.67503 8.40016 2.8 8.40011H5.6V9.52011H4.81469C3.75735 9.52011 2.78806 10.1187 2.31328 11.0634L2.33078 11.0306L0.413438 14.2889C0.143087 14.7294 0 15.2358 0 15.7523V20.8929C0 21.7189 0.681164 22.4001 1.50719 22.4001H2.29141C2.56038 23.9839 3.9423 25.2001 5.6 25.2001C7.2577 25.2001 8.63962 23.9839 8.90859 22.4001H19.0914C19.3604 23.9839 20.7423 25.2001 22.4 25.2001C24.0577 25.2001 25.4396 23.9839 25.7086 22.4001H26.32C27.2415 22.4001 28 21.6416 28 20.7201V18.1378C28 16.7729 27.0064 15.6008 25.6605 15.376L20.9967 14.5984L17.0986 10.5154C16.5668 9.88427 15.783 9.52011 14.9581 9.52011H14.56V8.40011H17.36C17.464 8.40011 17.566 8.37116 17.6544 8.31649C17.7429 8.26182 17.8144 8.18359 17.8609 8.09058L18.9809 5.85058C19.018 5.77648 19.0382 5.69509 19.04 5.61226C19.0418 5.52944 19.0252 5.44724 18.9914 5.3716C18.9576 5.29596 18.9074 5.22876 18.8445 5.17484C18.7816 5.12092 18.7076 5.08163 18.6277 5.0598L12.4677 3.3798C12.4195 3.36669 12.3699 3.36007 12.32 3.36011H3.92ZM4.15188 4.48011H12.2445L17.6739 5.96105L17.0144 7.28011H3.2375L2.86016 5.77183L4.15188 4.48011ZM6.72 8.40011H13.44V9.52011H6.72V8.40011ZM4.81469 10.6401H9.52V14.5601H1.55313L3.30531 11.5829L3.31406 11.5654C3.59976 10.997 4.17859 10.6401 4.81469 10.6401ZM10.64 10.6401H14.9581C15.4537 10.6401 15.9228 10.8582 16.2422 11.2373L16.2531 11.2504L19.4108 14.5601H10.64V10.6401ZM1.12437 15.6801H20.673L25.4767 16.4807C26.2902 16.6166 26.88 17.313 26.88 18.1378V20.7201C26.88 21.0307 26.6305 21.2801 26.32 21.2801H25.7086C25.4396 19.6963 24.0577 18.4801 22.4 18.4801C20.7423 18.4801 19.3604 19.6963 19.0914 21.2801H8.90859C8.63962 19.6963 7.2577 18.4801 5.6 18.4801C3.9423 18.4801 2.56038 19.6963 2.29141 21.2801H1.50719C1.28713 21.2801 1.12 21.113 1.12 20.8929V15.7523C1.12 15.7281 1.12334 15.7043 1.12437 15.6801ZM5.6 19.6001C6.84341 19.6001 7.84 20.5967 7.84 21.8401C7.84 23.0835 6.84341 24.0801 5.6 24.0801C4.35659 24.0801 3.36 23.0835 3.36 21.8401C3.36 20.5967 4.35659 19.6001 5.6 19.6001ZM22.4 19.6001C23.6434 19.6001 24.64 20.5967 24.64 21.8401C24.64 23.0835 23.6434 24.0801 22.4 24.0801C21.1566 24.0801 20.16 23.0835 20.16 21.8401C20.16 20.5967 21.1566 19.6001 22.4 19.6001Z" fill="black"/>
</svg>
