<svg width="22" height="18" viewBox="0 0 22 18" fill="none" xmlns="http://www.w3.org/2000/svg">
<path d="M6.73332 12.0215C7.2768 11.4386 7.93393 10.9733 8.66418 10.6543C9.3944 10.3353 10.1828 10.1695 10.9798 10.1667C11.7766 10.1639 12.5656 10.3244 13.2981 10.6384C14.0305 10.9523 14.6911 11.4129 15.2386 11.992M4.1744 8.4678C5.04397 7.53529 6.09538 6.79095 7.26378 6.28044C8.43217 5.76998 9.6926 5.50446 10.9675 5.5C12.2426 5.49556 13.5045 5.75252 14.6764 6.2548C15.8483 6.75712 16.9054 7.49422 17.7816 8.42067M0.760986 5.28566C2.06534 3.88691 3.64247 2.77025 5.39506 2.00457C7.14765 1.23888 9.03763 0.840022 10.9502 0.833337C12.8628 0.826664 14.7577 1.2121 16.5156 1.96553C18.2736 2.71896 19.8587 3.82527 21.1728 5.21488M11.0001 17.1667C10.3557 17.1667 9.83342 16.6444 9.83342 16C9.83342 15.3557 10.3557 14.8334 11.0001 14.8334C11.6444 14.8334 12.1668 15.3557 12.1668 16C12.1668 16.6444 11.6444 17.1667 11.0001 17.1667Z" stroke="black" stroke-width="1.5" stroke-linecap="round" stroke-linejoin="round"/>
</svg>
