<svg width="28" height="28" viewBox="0 0 28 28" fill="none" xmlns="http://www.w3.org/2000/svg">
<path fill-rule="evenodd" clip-rule="evenodd" d="M3.1272 2.625V25.375C3.1272 26.0999 3.71476 26.6875 4.4397 26.6875C7.84082 26.6875 20.1591 26.6875 23.5602 26.6875C24.2851 26.6875 24.8727 26.0999 24.8727 25.375V2.625C24.8727 1.90006 24.2851 1.3125 23.5602 1.3125C20.1591 1.3125 7.84082 1.3125 4.4397 1.3125C3.71476 1.3125 3.1272 1.90006 3.1272 2.625ZM23.9977 24.5V25.375C23.9977 25.6165 23.8017 25.8125 23.5602 25.8125H4.4397C4.1982 25.8125 4.0022 25.6165 4.0022 25.375V24.5H23.9977ZM4.0022 8.75V23.625H23.9977V8.75H4.0022ZM20.3262 17.9375H21.4374C21.6789 17.9375 21.8749 17.7415 21.8749 17.5V14.875C21.8749 14.6335 21.6789 14.4375 21.4374 14.4375H20.3262C19.5593 11.6642 17.0161 9.625 13.9999 9.625C10.3779 9.625 7.43745 12.5654 7.43745 16.1875C7.43745 19.8096 10.3779 22.75 13.9999 22.75C17.0161 22.75 19.5593 20.7108 20.3262 17.9375ZM19.4127 14.4375C18.6742 12.1538 16.5287 10.5 13.9999 10.5C10.8609 10.5 8.31245 13.0484 8.31245 16.1875C8.31245 19.3266 10.8609 21.875 13.9999 21.875C16.5287 21.875 18.6742 20.2213 19.4127 17.9375H18.0394C17.3621 19.4972 15.8077 20.5892 13.9999 20.5892C11.5705 20.5892 9.59826 18.6169 9.59826 16.1875C9.59826 13.7581 11.5705 11.7858 13.9999 11.7858C15.8077 11.7858 17.3621 12.8778 18.0394 14.4375H19.4127ZM17.0808 14.4707C16.4775 13.3914 15.3234 12.6608 13.9999 12.6608C12.0535 12.6608 10.4733 14.2411 10.4733 16.1875C10.4733 18.1339 12.0535 19.7142 13.9999 19.7142C15.3234 19.7142 16.4775 18.9836 17.0808 17.9042C16.2784 17.7454 15.6721 17.0367 15.6721 16.1875C15.6721 15.3383 16.2784 14.6296 17.0808 14.4707ZM20.9999 15.3125H17.4221C16.9395 15.3125 16.5471 15.7045 16.5471 16.1875C16.5471 16.6705 16.9395 17.0625 17.4221 17.0625H20.9999V15.3125ZM23.9977 7.875H4.0022V2.625C4.0022 2.3835 4.1982 2.1875 4.4397 2.1875H23.5602C23.8017 2.1875 23.9977 2.3835 23.9977 2.625V7.875ZM12.2499 3.5C12.2499 3.2585 12.0539 3.0625 11.8124 3.0625H5.24995C5.00845 3.0625 4.81245 3.2585 4.81245 3.5V6.5625C4.81245 6.804 5.00845 7 5.24995 7H11.8124C12.0539 7 12.2499 6.804 12.2499 6.5625V3.5ZM21.6562 3.71875C20.8109 3.71875 20.1249 4.40475 20.1249 5.25C20.1249 6.09525 20.8109 6.78125 21.6562 6.78125C22.5014 6.78125 23.1874 6.09525 23.1874 5.25C23.1874 4.40475 22.5014 3.71875 21.6562 3.71875ZM17.7187 3.71875C16.8734 3.71875 16.1874 4.40475 16.1874 5.25C16.1874 6.09525 16.8734 6.78125 17.7187 6.78125C18.5639 6.78125 19.2499 6.09525 19.2499 5.25C19.2499 4.40475 18.5639 3.71875 17.7187 3.71875ZM11.3749 3.9375V6.125H5.68745V3.9375H11.3749ZM21.6562 4.59375C22.0184 4.59375 22.3124 4.88775 22.3124 5.25C22.3124 5.61225 22.0184 5.90625 21.6562 5.90625C21.2939 5.90625 20.9999 5.61225 20.9999 5.25C20.9999 4.88775 21.2939 4.59375 21.6562 4.59375ZM17.7187 4.59375C18.0809 4.59375 18.3749 4.88775 18.3749 5.25C18.3749 5.61225 18.0809 5.90625 17.7187 5.90625C17.3564 5.90625 17.0624 5.61225 17.0624 5.25C17.0624 4.88775 17.3564 4.59375 17.7187 4.59375Z" fill="black"/>
</svg>
