<svg width="28" height="28" viewBox="0 0 28 28" fill="none" xmlns="http://www.w3.org/2000/svg">
<path d="M14.0001 24.5V12.8333M19.5301 14.1983C19.7269 14.6921 19.8298 15.2184 19.8334 15.75C19.8334 16.833 19.4032 17.8716 18.6375 18.6373C17.8717 19.4031 16.8331 19.8333 15.7501 19.8333C15.1435 19.8308 14.5452 19.6912 14.0001 19.425C13.455 19.6912 12.8568 19.8308 12.2501 19.8333C11.1671 19.8333 10.1285 19.4031 9.36275 18.6373C8.59698 17.8716 8.16677 16.833 8.16677 15.75C8.17041 15.2184 8.27329 14.6921 8.47011 14.1983C7.93805 13.7572 7.52741 13.1875 7.2771 12.5433C7.02678 11.8991 6.94507 11.2016 7.0397 10.517C7.13434 9.83231 7.40219 9.18316 7.81788 8.631C8.23356 8.07883 8.78333 7.64192 9.41511 7.36165C9.61755 6.29381 10.1864 5.33011 11.0234 4.63684C11.8605 3.94357 12.9132 3.56421 14.0001 3.56421C15.087 3.56421 16.1398 3.94357 16.9768 4.63684C17.8138 5.33011 18.3827 6.29381 18.5851 7.36165C19.2169 7.64192 19.7667 8.07883 20.1823 8.631C20.598 9.18316 20.8659 9.83231 20.9605 10.517C21.0551 11.2016 20.9734 11.8991 20.7231 12.5433C20.4728 13.1875 20.0622 13.7572 19.5301 14.1983Z" stroke="black" stroke-width="1.3" stroke-linecap="round" stroke-linejoin="round"/>
</svg>
